<?xml version="1.0" standalone="no"?>
<!DOCTYPE svg PUBLIC "-//W3C//DTD SVG 20010904//EN"
 "http://www.w3.org/TR/2001/REC-SVG-20010904/DTD/svg10.dtd">
<svg version="1.0" xmlns="http://www.w3.org/2000/svg"
 width="800.000000pt" height="800.000000pt" viewBox="0 0 800.000000 800.000000"
 preserveAspectRatio="xMidYMid meet">

<g transform="translate(0.000000,800.000000) scale(0.100000,-0.100000)"
fill="#ffffff" stroke="none">
<path d="M2283 5143 c-78 -91 -178 -244 -230 -353 -24 -49 -72 -176 -79 -205
l-7 -30 31 29 c17 15 28 34 25 42 -7 18 38 105 50 97 5 -3 7 3 3 14 -4 13 1
26 14 38 11 10 20 26 20 36 0 34 139 275 170 294 16 10 72 95 62 95 -5 0 -31
-26 -59 -57z"/>
<path d="M4570 5125 c5 -14 16 -38 25 -54 19 -37 10 -61 -21 -61 -30 0 -30 0
1 -52 66 -110 156 -330 142 -344 -2 -3 -99 6 -213 20 -419 51 -420 51 -422 -3
0 -23 4 -31 16 -31 9 0 96 -9 192 -20 96 -11 317 -36 490 -56 556 -62 884
-104 932 -120 65 -21 96 -49 124 -108 26 -55 30 -76 14 -76 -5 0 -10 7 -10 16
0 20 -19 8 -30 -20 -7 -17 -9 -15 -9 17 -1 27 3 37 15 37 9 0 14 6 11 13 -2 8
-27 12 -78 11 -82 -1 -64 6 -489 -191 -107 -50 -251 -116 -320 -147 -131 -60
-157 -79 -193 -136 l-22 -35 -5 -970 -5 -970 -23 -51 c-13 -29 -36 -64 -52
-79 -28 -27 -35 -28 -125 -29 -52 -1 -95 2 -95 7 0 4 7 7 15 7 8 0 15 3 15 8
0 4 24 6 52 5 l53 -1 -45 7 c-44 8 -44 8 -9 9 35 2 99 46 99 70 0 5 6 12 13
14 12 5 15 114 8 388 -3 108 -4 119 -13 80 -5 -25 -7 -65 -5 -90 3 -25 2 -39
0 -32 -10 28 -23 9 -24 -35 l-2 -48 -7 44 c-4 25 -12 47 -18 49 -7 2 -12 8
-12 14 0 5 -7 25 -16 44 -19 39 -47 45 -66 14 -7 -11 -23 -20 -35 -20 -32 0
-29 -28 5 -40 15 -6 38 -16 51 -23 20 -10 21 -13 7 -15 -10 -2 -26 4 -36 13
-12 11 -29 16 -44 13 -14 -3 -23 -2 -21 2 3 4 -4 10 -15 13 -27 7 -25 35 3 47
19 8 17 9 -15 9 -20 1 -49 -4 -63 -11 -30 -13 -43 -5 -25 17 11 13 8 15 -18
15 -22 0 -32 -6 -37 -20 -8 -25 -35 -26 -35 -1 0 25 43 33 133 24 62 -5 72 -4
85 13 14 18 14 18 8 -2 -10 -32 21 -40 45 -12 10 13 18 27 19 32 0 4 14 6 30
4 29 -4 42 6 18 15 -10 3 -10 7 1 20 12 15 10 17 -14 17 -22 0 -25 3 -16 13
12 15 5 27 -16 27 -7 0 -13 -9 -13 -20 0 -16 -5 -19 -32 -14 -66 11 -78 15
-78 24 0 6 11 8 28 4 24 -7 26 -6 13 9 -7 10 -26 17 -42 17 -19 0 -29 5 -29
15 0 8 -5 15 -11 15 -6 0 -8 -7 -5 -16 6 -14 0 -16 -36 -10 -40 6 -42 5 -23
-9 24 -19 37 -21 -310 36 -132 21 -337 52 -455 69 -118 17 -232 36 -252 41
-47 12 -50 36 -9 81 l28 32 56 -13 c89 -20 82 -27 279 267 37 56 72 102 76
102 4 0 55 -57 112 -126 111 -132 149 -164 197 -164 38 0 69 34 169 184 171
257 174 260 217 281 53 25 80 85 71 159 -14 131 -101 197 -191 147 -54 -31
-93 -89 -93 -139 0 -34 -13 -56 -92 -165 -51 -69 -100 -126 -109 -126 -8 -1
-59 52 -112 117 -53 65 -109 125 -123 133 -31 16 -91 16 -121 0 -32 -17 -101
-111 -247 -339 -26 -42 -29 -43 -66 -37 -45 8 -96 -15 -152 -69 -20 -20 -41
-36 -47 -36 -8 0 -11 78 -11 243 0 257 -2 267 -47 267 -45 0 -48 -20 -51 -420
-2 -206 0 -390 3 -407 3 -18 14 -37 25 -43 10 -5 85 -21 167 -34 81 -14 171
-30 200 -35 28 -6 87 -15 130 -21 43 -5 150 -21 238 -35 88 -14 180 -28 205
-31 25 -3 59 -9 75 -14 17 -4 52 -11 79 -15 60 -8 77 -15 70 -26 -3 -5 0 -9 5
-9 6 0 11 -11 11 -24 0 -14 5 -28 11 -31 6 -4 8 -13 5 -21 -3 -9 2 -14 14 -14
11 0 20 7 20 15 0 22 33 18 48 -5 11 -18 10 -19 -18 -13 -19 3 -30 1 -30 -6 0
-6 -11 -11 -25 -11 -14 0 -25 -4 -25 -10 0 -5 -6 -7 -13 -4 -7 2 -22 -4 -32
-16 -26 -29 -38 -25 -33 13 2 20 -2 39 -9 46 -8 7 -13 8 -13 1 0 -5 -20 -10
-44 -10 -41 0 -43 -1 -38 -25 3 -18 -2 -30 -19 -44 -24 -19 -24 -20 -4 -34 11
-8 27 -13 37 -12 10 2 18 -1 18 -6 0 -6 -16 -9 -37 -7 -22 2 -38 -2 -41 -10
-5 -15 -38 -16 -47 -2 -4 6 -3 10 2 9 19 -3 31 2 36 14 4 10 -2 13 -21 9 -15
-3 -29 -8 -32 -11 -8 -10 -49 -31 -60 -31 -5 0 -10 5 -10 10 0 6 6 10 13 10 7
0 24 10 37 22 21 19 35 24 78 27 16 1 13 53 -4 58 -5 2 -15 -9 -21 -24 -10
-25 -11 -26 -12 -6 -1 12 -10 27 -20 33 -27 14 -31 13 -31 -9 0 -24 -31 -52
-37 -33 -7 20 -20 14 -26 -14 -4 -25 -3 -26 32 -19 35 6 35 6 14 -9 -12 -9
-27 -14 -35 -13 -7 2 -10 2 -5 0 14 -9 -3 -21 -23 -16 -20 5 -29 43 -10 43 18
0 10 22 -10 27 -21 6 -35 36 -25 53 3 5 2 10 -3 10 -5 0 -12 -8 -14 -18 -4
-15 -12 -18 -37 -14 -19 2 -31 0 -31 -7 0 -6 12 -11 28 -11 34 0 47 -9 56 -38
l7 -22 -143 6 c-127 5 -225 -1 -310 -20 -17 -4 -28 -2 -28 4 0 5 -7 10 -15 10
-8 0 -15 -4 -15 -10 0 -5 5 -10 12 -10 25 0 -9 -19 -80 -44 -69 -25 -74 -25
-112 -10 -22 9 -40 20 -40 25 0 13 9 11 26 -6 17 -17 44 -20 44 -6 0 14 -64
51 -89 51 -11 0 -21 4 -21 8 0 11 -127 35 -140 27 -5 -3 -21 13 -36 35 -18 27
-24 44 -17 48 6 4 7 15 2 30 -11 30 -21 28 -13 -3 3 -14 2 -25 -3 -25 -16 0
-84 76 -76 85 5 4 3 5 -3 2 -6 -4 -29 7 -51 23 -103 76 -290 150 -380 150
l-43 0 0 203 c0 111 -3 475 -7 808 -7 685 -8 675 62 744 31 32 59 47 120 67
44 14 152 54 240 88 88 34 196 75 240 90 44 16 148 54 230 85 83 31 181 67
219 81 77 27 95 37 48 28 -17 -4 -39 -3 -48 0 -15 6 -15 8 2 28 19 21 19 21
-6 13 -14 -4 -86 -30 -160 -57 -74 -27 -171 -63 -215 -78 -160 -57 -580 -216
-650 -245 -50 -21 -100 -68 -128 -120 -21 -38 -22 -57 -27 -360 -3 -176 -7
-554 -8 -839 -2 -286 -4 -522 -7 -524 -2 -2 -31 -6 -64 -9 -34 -3 -64 -9 -66
-13 -3 -4 18 -10 46 -14 43 -6 49 -9 39 -21 -10 -12 -10 -15 1 -16 8 0 5 -4
-6 -8 -13 -5 8 -10 65 -15 222 -19 363 -77 504 -208 48 -45 97 -100 112 -129
15 -27 29 -47 32 -44 3 2 0 10 -6 17 -7 9 -7 18 3 31 12 17 15 17 41 -8 28
-26 64 -50 64 -42 0 5 -28 65 -41 90 -6 11 -7 22 -4 25 4 4 11 -1 16 -11 6 -9
14 -15 20 -12 5 4 17 -7 27 -24 13 -25 24 -31 52 -32 29 -2 31 -3 8 -6 -40 -6
-53 -27 -40 -66 l10 -32 1 37 c1 36 21 63 29 40 5 -16 29 -15 35 1 2 7 8 8 13
3 5 -5 4 -11 -3 -13 -15 -5 -18 -33 -3 -33 5 0 13 6 17 14 4 8 22 17 38 21
l30 7 -25 -21 c-14 -11 -29 -21 -34 -21 -12 0 -56 -49 -56 -62 0 -10 25 5 43
27 5 6 7 3 4 -7 -3 -9 -3 -18 0 -21 7 -8 32 16 26 25 -7 13 8 9 23 -7 13 -13
10 -18 -27 -45 -55 -39 -41 -39 16 0 60 41 213 99 305 116 91 16 235 18 316 3
137 -24 303 -94 404 -171 57 -44 153 -145 197 -209 46 -68 47 -69 71 -53 79
51 230 69 341 39 30 -8 58 -12 62 -9 4 2 15 26 24 53 33 102 140 238 247 317
67 50 178 102 257 121 81 19 241 19 333 0 37 -8 65 -11 62 -6 -3 5 -15 9 -27
9 -20 1 -20 2 -4 11 10 6 23 8 30 6 7 -2 23 0 36 5 17 6 27 5 33 -4 6 -10 8
-10 8 1 0 7 6 11 15 7 8 -3 15 -1 15 5 0 19 88 126 142 173 60 52 166 111 248
137 57 19 41 26 -20 9 -32 -9 -33 -8 -16 5 20 15 20 15 0 16 -15 0 -12 4 11
15 29 15 29 15 -27 10 -31 -2 -79 -15 -107 -29 l-51 -24 0 639 0 639 58 -6
c207 -22 270 -39 396 -102 223 -112 378 -289 456 -521 29 -85 33 -110 34 -207
1 -60 -3 -127 -7 -147 l-8 -38 43 0 c55 0 187 -34 254 -64 200 -92 334 -263
400 -511 25 -94 25 -320 1 -419 -55 -218 -176 -399 -358 -535 -254 -189 -627
-236 -886 -112 l-82 40 -30 -65 c-97 -208 -253 -361 -471 -463 -124 -58 -187
-72 -343 -78 -207 -8 -352 21 -521 106 l-79 40 -41 -29 c-55 -39 -120 -53
-217 -48 l-81 5 -72 -70 c-163 -159 -383 -268 -625 -308 -98 -16 -294 -13
-395 6 -375 70 -671 280 -841 597 l-30 56 -57 -38 c-63 -42 -198 -94 -303
-117 -89 -19 -312 -13 -400 11 -77 21 -200 75 -272 118 -131 78 -283 254 -335
389 l-22 56 -86 6 c-188 12 -335 77 -479 214 -248 232 -353 557 -296 910 22
139 108 319 198 421 11 12 16 22 11 22 -10 0 -32 -26 -93 -110 -22 -30 -44
-59 -48 -65 -5 -5 -15 -29 -23 -53 -12 -38 -41 -72 -61 -72 -24 0 -5 96 27
131 7 8 19 31 25 50 7 19 22 48 35 66 13 17 29 44 35 59 10 28 10 28 -11 9
-54 -49 -133 -194 -175 -320 -62 -190 -55 -542 14 -700 5 -11 15 -36 21 -55
24 -66 91 -180 146 -248 64 -77 179 -181 244 -220 25 -14 47 -29 50 -32 27
-29 237 -100 296 -100 89 0 98 -6 135 -83 107 -224 349 -418 604 -485 22 -6
59 -15 81 -21 54 -14 365 -14 418 0 92 24 208 61 234 75 15 7 33 14 39 14 7 0
38 -37 70 -83 63 -89 142 -172 216 -227 26 -19 54 -41 61 -47 21 -18 194 -123
204 -123 5 0 45 -16 89 -35 45 -19 91 -35 104 -35 31 0 16 12 -53 41 -56 24
-84 51 -73 69 8 13 55 13 55 1 0 -9 26 -21 55 -27 6 -1 58 -13 116 -28 59 -14
117 -26 129 -26 29 0 60 -18 60 -35 0 -20 -33 -27 -98 -20 -151 16 -149 16
-122 4 43 -20 200 -38 324 -39 113 0 208 10 286 30 19 5 62 16 96 24 33 9 88
30 122 46 34 17 65 30 67 30 21 0 195 122 260 182 l80 74 123 12 c77 8 132 18
147 28 22 15 29 13 116 -21 292 -115 444 -130 734 -69 63 13 222 79 279 116
32 21 60 38 62 38 9 0 150 119 174 146 50 57 96 122 125 178 33 64 29 63 140
32 28 -8 69 -19 91 -25 51 -13 268 -14 326 -2 160 36 203 49 283 86 341 158
565 464 605 829 46 428 -199 846 -561 955 -35 11 -78 22 -95 26 l-31 6 -6 102
c-15 254 -151 522 -344 679 -83 67 -183 130 -243 154 -25 9 -49 20 -55 24 -11
8 -122 44 -170 55 -16 4 -79 10 -140 14 l-110 6 -6 250 c-6 278 -8 291 -76
366 -43 47 -97 77 -162 89 -25 5 -75 13 -111 20 -36 6 -103 15 -150 20 -88 8
-244 28 -435 55 -60 8 -121 16 -135 18 -29 2 -40 22 -75 137 -34 108 -80 199
-162 323 -64 94 -92 123 -73 72z m1265 -964 c3 -5 1 -12 -4 -16 -6 -3 -8 -12
-4 -20 3 -8 1 -15 -5 -15 -11 0 -22 46 -14 55 8 8 20 6 27 -4z m22 -48 c-3
-10 -5 -2 -5 17 0 19 2 27 5 18 2 -10 2 -26 0 -35z m-1522 -667 c35 -36 51
-97 36 -145 -9 -31 -21 -45 -53 -63 -42 -23 -69 -59 -221 -288 -130 -196 -141
-200 -242 -77 -124 148 -197 227 -209 227 -13 0 -83 -95 -211 -285 -37 -55
-75 -104 -85 -109 -12 -5 -29 -3 -51 8 -47 24 -60 20 -115 -29 -80 -73 -118
-70 -131 9 -6 37 -4 40 72 112 85 81 111 93 163 74 33 -12 36 -11 54 11 10 13
26 38 35 54 45 83 204 315 227 330 42 28 76 12 137 -63 127 -157 181 -213 202
-210 23 3 79 72 180 220 59 86 65 101 60 132 -5 32 -1 40 35 76 47 47 81 52
117 16z m-2108 -1092 c-3 -3 -12 -4 -19 -1 -8 3 -5 6 6 6 11 1 17 -2 13 -5z
m2216 -18 c15 -12 15 -15 2 -26 -12 -10 -15 -10 -15 4 0 9 -10 21 -22 26 -21
8 -21 9 -3 9 11 0 28 -6 38 -13z m-240 -63 c-7 -2 -19 -2 -25 0 -7 3 -2 5 12
5 14 0 19 -2 13 -5z m127 -133 c0 -5 -4 -10 -10 -10 -5 0 -10 5 -10 10 0 6 5
10 10 10 6 0 10 -4 10 -10z m105 0 c3 -5 2 -10 -4 -10 -5 0 -13 5 -16 10 -3 6
-2 10 4 10 5 0 13 -4 16 -10z m-122 -37 c-7 -2 -19 -2 -25 0 -7 3 -2 5 12 5
14 0 19 -2 13 -5z m75 -9 c12 -8 22 -19 22 -24 0 -6 -9 -2 -20 8 -11 9 -30 20
-43 24 -20 6 -20 6 -2 7 11 1 31 -6 43 -15z m-218 -4 c0 -5 -7 -10 -16 -10 -8
0 -12 5 -9 10 3 6 10 10 16 10 5 0 9 -4 9 -10z m-1425 -20 c-3 -10 -1 -28 5
-40 6 -11 7 -20 2 -20 -7 0 -16 14 -40 63 -2 4 3 4 12 1 9 -3 16 -1 16 5 0 6
3 11 6 11 3 0 3 -9 -1 -20z m2822 4 c-3 -3 -12 -4 -19 -1 -8 3 -5 6 6 6 11 1
17 -2 13 -5z m-957 -14 c0 -5 -2 -10 -4 -10 -3 0 -8 5 -11 10 -3 6 -1 10 4 10
6 0 11 -4 11 -10z m-363 -37 c-3 -10 -5 -4 -5 12 0 17 2 24 5 18 2 -7 2 -21 0
-30z m176 8 c2 -10 1 -25 -4 -32 -6 -10 -9 -4 -9 19 0 36 5 42 13 13z m-1499
-7 c3 -8 2 -12 -4 -9 -6 3 -10 10 -10 16 0 14 7 11 14 -7z m971 -14 c8 -13 -5
-13 -25 0 -13 8 -13 10 2 10 9 0 20 -4 23 -10z m101 -5 c20 -15 13 -18 -23 -9
-13 4 -23 10 -23 15 0 14 24 11 46 -6z m-59 -11 c-3 -3 -12 -4 -19 -1 -8 3 -5
6 6 6 11 1 17 -2 13 -5z m38 -14 c3 -5 2 -10 -4 -10 -5 0 -13 5 -16 10 -3 6
-2 10 4 10 5 0 13 -4 16 -10z m289 -6 c3 -8 2 -12 -4 -9 -6 3 -10 10 -10 16 0
14 7 11 14 -7z m-234 -3 c0 -12 -20 -25 -27 -18 -7 7 6 27 18 27 5 0 9 -4 9
-9z m46 -17 c-18 -13 -18 -14 5 -33 13 -11 30 -20 37 -21 6 0 12 -5 12 -11 0
-7 -10 -5 -25 5 -14 9 -36 23 -50 32 -27 18 -25 31 9 44 28 10 36 2 12 -16z
m152 -159 c-3 -3 -9 2 -12 12 -6 14 -5 15 5 6 7 -7 10 -15 7 -18z m117 -125
c3 -5 1 -10 -4 -10 -6 0 -11 5 -11 10 0 6 2 10 4 10 3 0 8 -4 11 -10z m395
-100 c0 -5 -2 -10 -4 -10 -3 0 -8 5 -11 10 -3 6 -1 10 4 10 6 0 11 -4 11 -10z
m-2380 -934 c0 -8 -12 -19 -27 -25 -145 -56 -172 -61 -192 -37 -25 30 71 73
167 75 38 1 52 -3 52 -13z m2240 -180 c0 -9 -39 -13 -51 -5 -10 6 -4 9 19 9
17 0 32 -2 32 -4z m-630 -335 c0 -5 -11 -16 -25 -25 -20 -13 -44 -16 -103 -14
l-77 3 65 22 c67 22 140 30 140 14z m-223 -47 c-3 -3 -12 -4 -19 -1 -8 3 -5 6
6 6 11 1 17 -2 13 -5z"/>
<path d="M2364 5098 c-58 -61 -119 -138 -137 -173 -8 -16 -25 -38 -36 -47 -12
-10 -21 -27 -21 -37 0 -11 -6 -24 -13 -28 -7 -4 -19 -24 -27 -43 -7 -19 -18
-42 -25 -50 -6 -8 -12 -28 -14 -45 -2 -16 -7 -37 -11 -46 -12 -22 -40 -146
-39 -172 0 -12 13 23 28 78 53 190 187 434 315 573 16 17 28 32 25 32 -3 0
-23 -19 -45 -42z"/>
<path d="M3340 4680 c-13 -9 -13 -10 0 -10 8 0 22 5 30 10 13 9 13 10 0 10 -8
0 -22 -5 -30 -10z"/>
<path d="M3760 4466 c-159 -32 -197 -117 -81 -179 62 -34 146 -50 261 -50 297
-1 407 151 158 216 l-58 15 0 -26 c0 -15 -3 -38 -7 -51 -4 -17 -3 -22 5 -17 7
4 12 16 12 26 0 28 21 30 63 7 55 -30 51 -62 -10 -90 -104 -46 -408 -19 -430
39 -10 27 46 70 111 85 31 7 56 17 56 24 0 14 -11 15 -80 1z"/>
<path d="M3866 4350 c14 -14 111 -29 138 -21 12 3 22 12 24 20 2 9 -3 11 -15
6 -36 -14 -92 -17 -125 -6 -21 8 -29 8 -22 1z"/>
<path d="M1495 4103 c-152 -62 -284 -169 -373 -300 -23 -35 -42 -65 -42 -67 0
-3 -13 -34 -30 -69 -53 -115 -75 -298 -49 -403 18 -72 34 -48 34 52 0 72 3 89
15 89 12 0 16 -19 20 -86 3 -48 10 -93 16 -100 6 -8 19 -36 29 -62 22 -57 17
-63 -52 -66 -26 -1 -49 -3 -51 -6 -7 -7 88 -6 115 1 l21 6 -19 56 c-47 138
-46 339 3 470 58 154 191 302 330 368 47 21 49 23 18 18 -19 -4 -47 -13 -62
-20 -58 -30 -64 -14 -13 32 28 25 59 50 70 55 93 47 106 67 20 32z m-195 -182
c0 -5 -8 -15 -17 -22 -16 -12 -17 -12 -6 2 7 9 10 19 6 22 -3 4 -1 7 5 7 7 0
12 -4 12 -9z m-95 -109 c4 -25 -5 -34 -24 -23 -10 7 -10 12 0 29 15 24 18 23
24 -6z m-105 -200 c0 -27 -14 -42 -30 -32 -11 7 -12 13 -2 35 13 27 32 26 32
-3z"/>
<path d="M2415 3834 c-40 -44 -58 -105 -53 -182 5 -72 16 -96 54 -125 28 -21
141 -44 260 -54 80 -6 86 -5 110 18 41 38 54 73 54 145 0 77 -26 145 -66 171
-28 18 -216 53 -287 53 -39 0 -53 -5 -72 -26z m253 -48 c80 -14 94 -24 111
-75 27 -83 1 -183 -52 -196 -24 -7 -168 15 -240 36 -31 8 -42 18 -58 52 -30
67 -22 126 23 175 18 18 32 22 82 21 34 0 94 -6 134 -13z"/>
<path d="M2417 3328 c-81 -86 -74 -235 15 -301 27 -20 205 -56 287 -57 37 0
49 5 82 39 38 38 39 40 39 110 0 90 -15 153 -43 179 -30 27 -133 51 -249 59
l-98 6 -33 -35z m192 -33 c58 -8 115 -22 129 -31 78 -51 61 -232 -22 -242 -44
-5 -211 28 -245 49 -79 48 -79 181 1 226 28 15 14 15 137 -2z"/>
<path d="M898 3153 c7 -3 16 -2 19 1 4 3 -2 6 -13 5 -11 0 -14 -3 -6 -6z"/>
<path d="M858 3143 c7 -3 16 -2 19 1 4 3 -2 6 -13 5 -11 0 -14 -3 -6 -6z"/>
<path d="M918 3063 c7 -3 16 -2 19 1 4 3 -2 6 -13 5 -11 0 -14 -3 -6 -6z"/>
<path d="M660 2959 c-17 -13 -18 -17 -5 -10 33 17 51 31 40 31 -5 0 -21 -10
-35 -21z"/>
<path d="M2435 2872 c-53 -12 -75 -62 -75 -168 0 -105 24 -158 86 -186 48 -21
222 -58 276 -58 74 0 120 69 120 179 0 67 -21 122 -59 156 -35 30 -64 40 -183
60 -127 21 -142 23 -165 17z m209 -86 c120 -16 140 -32 151 -120 17 -133 -25
-157 -208 -122 -91 18 -142 38 -155 63 -10 18 -16 82 -13 135 3 61 42 68 225
44z"/>
<path d="M395 2860 c-3 -5 -2 -10 4 -10 5 0 13 5 16 10 3 6 2 10 -4 10 -5 0
-13 -4 -16 -10z"/>
<path d="M4613 2465 c0 -33 2 -45 4 -27 2 18 2 45 0 60 -2 15 -4 0 -4 -33z"/>
<path d="M2256 2463 c-11 -11 -6 -23 9 -23 8 0 15 4 15 9 0 13 -16 22 -24 14z"/>
<path d="M4392 2443 c-6 -2 -10 -9 -6 -14 8 -14 21 -11 21 6 0 8 -1 15 -1 14
-1 0 -7 -3 -14 -6z"/>
<path d="M4433 2435 c0 -8 4 -15 9 -15 4 0 8 7 8 15 0 8 -4 15 -8 15 -5 0 -9
-7 -9 -15z"/>
<path d="M2313 2433 c9 -2 23 -2 30 0 6 3 -1 5 -18 5 -16 0 -22 -2 -12 -5z"/>
<path d="M4083 2433 c9 -2 23 -2 30 0 6 3 -1 5 -18 5 -16 0 -22 -2 -12 -5z"/>
<path d="M4551 2424 c0 -11 3 -14 6 -6 3 7 2 16 -1 19 -3 4 -6 -2 -5 -13z"/>
<path d="M4160 2426 c0 -2 7 -7 16 -10 8 -3 12 -2 9 4 -6 10 -25 14 -25 6z"/>
<path d="M4415 2390 c3 -5 11 -10 16 -10 6 0 7 5 4 10 -3 6 -11 10 -16 10 -6
0 -7 -4 -4 -10z"/>
<path d="M2505 2370 c17 -11 35 -20 40 -20 6 0 -3 9 -20 20 -16 11 -34 20 -40
20 -5 0 4 -9 20 -20z"/>
<path d="M4521 2374 c0 -11 3 -14 6 -6 3 7 2 16 -1 19 -3 4 -6 -2 -5 -13z"/>
<path d="M4545 2351 c-3 -16 -2 -47 4 -68 6 -21 11 -55 11 -75 0 -21 4 -38 9
-38 10 0 26 168 17 177 -3 4 -6 -8 -6 -25 0 -17 -4 -33 -9 -36 -11 -7 -22 45
-14 73 3 11 3 21 0 21 -3 0 -8 -13 -12 -29z"/>
<path d="M4611 2364 c0 -11 3 -14 6 -6 3 7 2 16 -1 19 -3 4 -6 -2 -5 -13z"/>
<path d="M1983 2343 c9 -2 25 -2 35 0 9 3 1 5 -18 5 -19 0 -27 -2 -17 -5z"/>
<path d="M3968 2263 c7 -3 16 -2 19 1 4 3 -2 6 -13 5 -11 0 -14 -3 -6 -6z"/>
<path d="M4070 2249 c0 -5 5 -7 10 -4 6 3 10 8 10 11 0 2 -4 4 -10 4 -5 0 -10
-5 -10 -11z"/>
<path d="M2800 2192 c0 -12 19 -26 26 -19 2 2 -2 10 -11 17 -9 8 -15 8 -15 2z"/>
<path d="M3935 2180 c3 -5 10 -10 16 -10 5 0 9 5 9 10 0 6 -7 10 -16 10 -8 0
-12 -4 -9 -10z"/>
<path d="M2868 2163 c6 -2 18 -2 25 0 6 3 1 5 -13 5 -14 0 -19 -2 -12 -5z"/>
<path d="M3760 2150 c6 -11 15 -20 20 -20 6 0 10 9 10 20 0 13 -7 20 -20 20
-18 0 -19 -3 -10 -20z"/>
<path d="M2775 2150 c3 -5 10 -10 16 -10 5 0 9 5 9 10 0 6 -7 10 -16 10 -8 0
-12 -4 -9 -10z"/>
<path d="M3384 2109 c12 -8 25 -8 40 -1 18 9 16 11 -19 11 -33 0 -37 -1 -21
-10z"/>
<path d="M3520 2100 c0 -11 4 -20 9 -20 11 0 22 26 14 34 -12 12 -23 5 -23
-14z"/>
<path d="M2933 2098 c-2 -5 -3 -8 -1 -9 35 -8 58 -5 58 6 0 14 -48 16 -57 3z"/>
<path d="M3218 2103 c7 -3 16 -2 19 1 4 3 -2 6 -13 5 -11 0 -14 -3 -6 -6z"/>
<path d="M3475 2100 c-8 -13 -1 -24 14 -19 6 3 7 10 2 18 -6 10 -10 10 -16 1z"/>
<path d="M2888 2093 c7 -3 16 -2 19 1 4 3 -2 6 -13 5 -11 0 -14 -3 -6 -6z"/>
<path d="M3003 2082 c1 -20 28 -26 39 -9 4 8 15 7 32 -1 16 -7 26 -8 26 -2 0
6 -5 10 -11 10 -5 0 -7 5 -4 10 4 6 -11 10 -39 10 -37 0 -45 -3 -43 -18z"/>
<path d="M3325 2080 c3 -5 15 -10 26 -10 11 0 17 5 14 10 -3 6 -15 10 -26 10
-11 0 -17 -4 -14 -10z"/>
<path d="M3393 2083 c9 -2 23 -2 30 0 6 3 -1 5 -18 5 -16 0 -22 -2 -12 -5z"/>
<path d="M3588 2083 c7 -3 16 -2 19 1 4 3 -2 6 -13 5 -11 0 -14 -3 -6 -6z"/>
<path d="M3631 2086 c2 -2 20 -6 39 -10 25 -4 31 -3 20 4 -14 9 -69 15 -59 6z"/>
<path d="M2860 2026 c0 -8 4 -17 9 -20 5 -4 7 3 4 14 -6 23 -13 26 -13 6z"/>
<path d="M3170 2030 c-12 -8 -11 -10 8 -10 12 0 22 5 22 10 0 13 -11 13 -30 0z"/>
<path d="M3128 2013 c7 -3 16 -2 19 1 4 3 -2 6 -13 5 -11 0 -14 -3 -6 -6z"/>
<path d="M2946 1933 c-11 -11 -6 -23 9 -23 8 0 15 4 15 9 0 13 -16 22 -24 14z"/>
</g>
</svg>
