<svg version="1.0" xmlns="http://www.w3.org/2000/svg"
 width="600.000000pt" height="589.000000pt" viewBox="0 0 600.000000 589.000000"
 preserveAspectRatio="xMidYMid meet">

<g transform="translate(0.000000,589.000000) scale(0.100000,-0.100000)"
fill="#000000" stroke="none">
<path d="M2970 5824 c-9 -3 -21 -13 -28 -24 -11 -18 -141 -363 -167 -445 -7
-22 -26 -76 -43 -120 -16 -44 -71 -195 -121 -335 -51 -140 -96 -259 -101 -264
-5 -5 -65 49 -142 128 -136 139 -154 151 -194 122 -17 -13 -19 -27 -18 -113 0
-54 9 -160 19 -236 12 -92 15 -141 8 -148 -7 -7 -44 15 -112 65 -55 42 -216
153 -356 246 -140 94 -289 195 -331 225 -80 58 -119 68 -148 39 -27 -26 -18
-68 40 -207 31 -72 71 -170 89 -217 18 -47 74 -179 124 -294 91 -210 102 -242
79 -233 -7 2 -78 24 -158 47 -80 24 -212 65 -294 92 -81 26 -154 48 -161 48
-20 0 -45 -35 -45 -62 0 -30 67 -116 234 -298 22 -25 64 -72 91 -104 181 -215
216 -259 212 -271 -3 -6 -45 -25 -94 -40 -48 -15 -128 -44 -178 -63 -49 -19
-187 -68 -305 -108 -559 -190 -760 -269 -777 -307 -13 -29 -1 -59 28 -74 38
-19 248 -92 766 -265 266 -89 483 -164 483 -167 0 -8 -153 -195 -229 -281
-100 -112 -111 -127 -111 -154 0 -16 9 -31 26 -42 30 -20 63 -16 329 41 210
45 245 50 245 38 0 -18 -25 -80 -180 -448 -162 -386 -250 -606 -250 -627 0 -8
7 -24 16 -37 30 -42 78 -26 284 94 102 59 232 135 290 168 58 33 168 100 246
149 78 48 145 88 149 88 4 0 5 -42 1 -93 -19 -277 -19 -342 -2 -360 36 -36 71
-22 147 55 39 40 98 106 132 146 34 39 65 72 68 72 4 0 23 -46 42 -102 389
-1143 365 -1078 412 -1100 35 -16 70 11 100 75 40 84 189 498 298 825 55 166
105 302 110 302 8 0 149 -144 226 -232 40 -45 79 -68 116 -68 49 0 49 33 4
392 -7 54 -10 101 -6 104 3 3 59 -25 124 -64 573 -339 666 -392 693 -392 16 0
54 -9 85 -21 31 -12 59 -19 62 -16 2 3 7 23 10 44 5 43 -22 116 -301 798 -62
150 -73 185 -61 185 3 0 38 -9 78 -19 197 -52 306 -64 337 -36 50 45 3 127
-209 363 -56 63 -100 119 -98 125 2 7 21 18 43 25 191 61 1277 424 1306 436
63 27 77 65 41 108 -20 23 -224 97 -1191 432 -85 30 -158 58 -163 63 -9 9 34
67 234 317 73 91 87 115 85 140 -5 53 -38 56 -191 17 -109 -28 -254 -61 -264
-61 -10 0 5 45 63 185 36 88 101 246 144 350 42 105 107 260 144 347 36 86 66
163 66 172 0 9 -9 25 -20 36 -24 24 -53 20 -120 -18 -63 -35 -654 -410 -773
-490 -67 -45 -101 -62 -106 -54 -4 7 -4 42 0 79 5 38 11 145 15 238 8 199 4
215 -54 215 -35 0 -47 -10 -187 -154 -84 -87 -155 -152 -161 -148 -5 4 -33 75
-61 157 -28 83 -79 229 -113 325 -34 96 -66 191 -72 209 -17 57 -148 412 -164
442 -14 27 -43 50 -61 48 -4 -1 -15 -3 -23 -5z m165 -1474 c76 -231 142 -420
146 -420 3 0 53 50 110 111 57 61 105 106 107 99 2 -6 -3 -51 -12 -98 -9 -48
-23 -132 -31 -187 -9 -55 -18 -108 -21 -119 -5 -15 1 -14 43 10 57 34 474 292
587 364 44 27 81 48 83 46 7 -7 -101 -269 -216 -524 -28 -61 -60 -135 -71
-163 l-19 -51 52 7 c152 20 263 35 270 35 4 0 -32 -35 -80 -77 -145 -129 -168
-151 -163 -156 7 -6 636 -189 853 -248 l119 -32 -33 -14 c-18 -8 -90 -31 -159
-52 -100 -31 -552 -187 -733 -253 l-37 -13 107 -109 108 -109 -40 7 c-22 4
-95 17 -162 30 -68 12 -123 19 -123 16 0 -8 70 -158 163 -351 156 -324 197
-412 195 -415 -2 -1 -69 37 -148 85 -80 48 -179 108 -220 133 -41 24 -135 81
-209 126 -74 45 -138 82 -143 82 -11 0 -10 -13 7 -239 9 -107 14 -195 13 -196
-2 -2 -47 48 -100 111 -73 86 -98 110 -101 97 -3 -10 -21 -70 -40 -133 -20
-63 -56 -185 -82 -270 -25 -85 -64 -209 -85 -275 -21 -66 -44 -140 -51 -165
l-12 -45 -9 33 c-36 132 -261 869 -267 875 -5 5 -51 -38 -102 -96 -52 -57 -95
-103 -97 -102 -3 3 26 226 42 322 7 40 10 73 6 73 -3 0 -31 -15 -61 -33 -237
-144 -365 -225 -497 -314 -85 -57 -156 -103 -158 -103 -2 0 0 8 5 18 6 9 35
76 65 147 64 153 129 305 198 465 64 149 72 170 64 177 -7 7 -195 -22 -279
-44 -32 -8 -61 -13 -63 -10 -2 2 47 57 110 123 l114 119 -91 26 c-112 32 -343
104 -537 169 -80 26 -171 55 -203 64 -124 36 -124 34 -2 71 395 119 541 162
702 208 101 29 183 54 183 57 -1 3 -65 72 -143 153 l-143 148 41 -6 c22 -4
104 -20 183 -36 79 -16 144 -29 146 -29 4 0 -26 72 -166 405 -44 105 -83 196
-85 203 -3 6 130 -78 295 -188 165 -110 304 -200 309 -200 9 0 -27 351 -43
424 -6 27 6 18 93 -72 l99 -103 37 113 c37 114 170 526 210 650 12 37 24 68
27 68 3 0 68 -189 145 -420z"/>
<path d="M2915 3551 c-212 -35 -390 -159 -482 -337 -58 -112 -74 -175 -75
-296 0 -142 27 -241 97 -349 107 -165 266 -266 471 -299 151 -24 337 26 472
128 158 118 247 286 259 487 14 244 -104 458 -329 593 -102 62 -283 94 -413
73z m172 -152 c35 -6 63 -15 63 -19 0 -4 -19 -4 -42 2 -24 5 -63 7 -88 3 -33
-4 -41 -3 -30 5 11 8 8 9 -15 4 -16 -4 -33 -11 -36 -17 -4 -5 -9 -5 -13 2 -4
6 -12 8 -18 5 -6 -4 -24 -9 -41 -10 -28 -4 -117 -49 -117 -60 0 -3 4 -2 10 1
6 3 7 -1 3 -10 -4 -13 -8 -14 -14 -4 -6 10 -12 9 -31 -3 -50 -34 -86 -78 -82
-101 2 -12 2 -16 -2 -9 -8 18 -24 15 -24 -5 0 -9 -3 -13 -7 -10 -3 4 -15 -7
-25 -24 -14 -23 -16 -35 -9 -42 6 -6 11 -16 11 -21 0 -6 -8 -2 -17 9 -15 19
-15 19 -9 -10 5 -21 4 -26 -3 -16 -10 16 -12 13 -31 -79 l-9 -45 5 55 c9 103
85 230 176 298 72 53 107 70 191 92 85 22 119 24 204 9z m164 -56 c27 -14 49
-30 49 -35 0 -5 -10 -2 -21 6 -23 15 -78 12 -90 -6 -4 -6 -9 2 -11 17 -4 19
-2 23 5 16 6 -6 22 -11 37 -10 24 0 24 1 4 9 -22 8 -42 30 -28 30 3 0 28 -12
55 -27z m-436 -13 c-3 -5 -11 -10 -16 -10 -6 0 -7 5 -4 10 3 6 11 10 16 10 6
0 7 -4 4 -10z m622 -158 c14 -24 23 -45 20 -49 -3 -3 -13 11 -21 31 -8 20 -19
36 -25 36 -5 0 -13 9 -16 20 -4 11 -11 18 -16 14 -5 -3 -8 0 -7 7 2 7 -8 18
-22 25 -14 7 -25 17 -25 21 0 4 -4 15 -9 23 -5 8 15 -7 43 -35 29 -27 64 -69
78 -93z m-278 58 c83 -38 135 -91 178 -179 24 -48 28 -68 28 -141 -1 -71 -5
-95 -27 -142 -92 -199 -312 -270 -511 -165 -66 34 -105 79 -145 164 -36 78
-38 211 -4 287 86 190 289 264 481 176z m-349 6 c0 -3 -4 -8 -10 -11 -5 -3
-10 -1 -10 4 0 6 5 11 10 11 6 0 10 -2 10 -4z m-112 -51 c-3 -3 -9 2 -12 12
-6 14 -5 15 5 6 7 -7 10 -15 7 -18z m-78 -35 c0 -5 -2 -10 -4 -10 -3 0 -8 5
-11 10 -3 6 -1 10 4 10 6 0 11 -4 11 -10z m864 -80 l7 -25 -15 25 c-17 28 -21
50 -7 35 5 -6 12 -21 15 -35z m-927 -42 c-3 -8 -6 -5 -6 6 -1 11 2 17 5 13 3
-3 4 -12 1 -19z m70 0 c-3 -8 -6 -5 -6 6 -1 11 2 17 5 13 3 -3 4 -12 1 -19z
m878 -32 c4 -25 5 -51 2 -58 -3 -7 -6 1 -6 19 -1 17 -5 43 -11 57 -5 15 -6 26
0 26 5 0 12 -20 15 -44z m-998 -103 c-3 -10 -5 -2 -5 17 0 19 2 27 5 18 2 -10
2 -26 0 -35z m10 -65 c-3 -7 -5 -2 -5 12 0 14 2 19 5 13 2 -7 2 -19 0 -25z
m990 10 c-3 -8 -6 -5 -6 6 -1 11 2 17 5 13 3 -3 4 -12 1 -19z m-972 -38 c-8
-13 3 -50 15 -50 5 0 11 8 13 18 3 10 5 6 6 -10 1 -16 -4 -28 -11 -28 -10 0
-9 -3 1 -9 7 -5 11 -13 8 -18 -4 -6 2 -19 13 -30 10 -12 17 -23 14 -26 -2 -2
3 -10 13 -18 15 -12 16 -12 10 4 -4 11 -3 16 4 12 6 -4 8 -13 5 -21 -3 -7 4
-23 15 -36 l21 -23 -5 23 c-3 12 -1 20 3 17 5 -3 10 1 13 7 2 7 4 1 3 -14 0
-16 -5 -28 -9 -28 -5 0 -6 -4 -2 -10 3 -5 13 -7 23 -4 12 4 13 3 4 -3 -9 -7 0
-18 32 -41 25 -18 60 -39 78 -47 18 -8 27 -14 19 -15 -26 0 -126 64 -177 115
-75 74 -154 245 -113 245 5 0 7 -5 4 -10z m946 -57 c-12 -20 -14 -14 -5 12 4
9 9 14 11 11 3 -2 0 -13 -6 -23z m-17 -21 c3 -5 -1 -9 -9 -9 -8 0 -12 4 -9 9
3 4 7 8 9 8 2 0 6 -4 9 -8z m-734 -67 c0 -4 -9 4 -20 18 -11 14 -20 28 -20 32
0 4 9 -4 20 -18 11 -14 20 -28 20 -32z m709 3 c-18 -34 -109 -127 -156 -159
-56 -39 -68 -37 -15 2 23 17 42 35 42 40 0 6 4 8 9 5 12 -8 73 63 65 76 -4 7
-3 8 4 4 6 -4 21 7 33 24 27 35 35 39 18 8z m-229 -198 c-8 -5 -19 -10 -25
-10 -5 0 -3 5 5 10 8 5 20 10 25 10 6 0 3 -5 -5 -10z m-300 -31 c10 -6 4 -7
-15 -3 -16 4 -37 11 -45 15 -10 6 -4 7 15 3 17 -4 37 -11 45 -15z m220 1 c-14
-4 -41 -8 -60 -8 l-35 1 35 7 c19 4 46 8 60 8 l25 0 -25 -8z m-173 -6 c-3 -3
-12 -4 -19 -1 -8 3 -5 6 6 6 11 1 17 -2 13 -5z m70 0 c-3 -3 -12 -4 -19 -1 -8
3 -5 6 6 6 11 1 17 -2 13 -5z"/>
</g>
</svg>